<?xml version="1.0" encoding="utf-8"?>
<!-- Generator: Adobe Illustrator 19.1.0, SVG Export Plug-In . SVG Version: 6.00 Build 0)  -->
<svg version="1.1" id="Ebene_1" xmlns="http://www.w3.org/2000/svg" xmlns:xlink="http://www.w3.org/1999/xlink" x="0px" y="0px"
	 viewBox="-2 4 24 24" style="enable-background:new -2 4 24 24;" xml:space="preserve">
<style type="text/css">
	.st0{fill:none;}
	.st1{fill:#FFFFFF;}
</style>
<path class="st0" d="M-2,4h24v24H-2V4z"/>
<path class="st1" d="M0,14.1c-1.1,0-1.9,0.9-1.9,1.9S-1.1,18,0,18s1.9-0.9,1.9-1.9S1.1,14.1,0,14.1z M0,6.4c-1.1,0-1.9,0.9-1.9,1.9
	s0.9,1.9,1.9,1.9s1.9-0.9,1.9-1.9S1.1,6.4,0,6.4z M0,21.8c-1.1,0-1.9,0.9-1.9,1.9s0.9,1.9,1.9,1.9s1.9-0.9,1.9-1.9S1.1,21.8,0,21.8z
	 M3.9,25.1h18v-2.6h-18V25.1z M3.9,17.3h18v-2.6h-18V17.3z M3.9,7.1v2.6h18V7.1H3.9z"/>
<path class="st0" d="M-5.5,0.6h30.9v30.9H-5.5V0.6z"/>
</svg>
